<svg xmlns="http://www.w3.org/2000/svg" width="1200" height="780" viewBox="0 0 1200 780" role="img" aria-labelledby="title desc">
  <title id="title">Generated sample curriculum vitae</title>
  <desc id="desc">Fictional faculty curriculum vitae for public demo testing.</desc>
  <rect width="1200" height="780" fill="#f8fafc"/>
  <rect x="72" y="60" width="1056" height="660" rx="18" fill="#ffffff" stroke="#cbd5e1"/>
  <rect x="72" y="60" width="310" height="660" rx="18" fill="#0f172a"/>
  <text x="122" y="142" font-family="Arial, sans-serif" font-size="38" font-weight="700" fill="#f8fafc">Prof. Daniel Reyes</text>
  <text x="122" y="183" font-family="Arial, sans-serif" font-size="20" fill="#bae6fd">Database Systems Lecturer</text>
  <text x="122" y="252" font-family="Arial, sans-serif" font-size="17" font-weight="700" fill="#fbbf24">SAMPLE ONLY</text>
  <text x="122" y="295" font-family="Arial, sans-serif" font-size="18" fill="#cbd5e1">daniel.reyes@umak.edu.ph</text>
  <text x="122" y="330" font-family="Arial, sans-serif" font-size="18" fill="#cbd5e1">UMak CCIS</text>
  <text x="430" y="135" font-family="Arial, sans-serif" font-size="30" font-weight="700" fill="#0f172a">Curriculum Vitae Summary</text>
  <text x="430" y="188" font-family="Arial, sans-serif" font-size="21" fill="#334155">Teaching Focus</text>
  <rect x="430" y="210" width="580" height="14" rx="7" fill="#dbeafe"/>
  <rect x="430" y="244" width="520" height="14" rx="7" fill="#dbeafe"/>
  <text x="430" y="314" font-family="Arial, sans-serif" font-size="21" fill="#334155">Education</text>
  <rect x="430" y="336" width="640" height="14" rx="7" fill="#dcfce7"/>
  <rect x="430" y="370" width="480" height="14" rx="7" fill="#dcfce7"/>
  <text x="430" y="440" font-family="Arial, sans-serif" font-size="21" fill="#334155">Professional Development</text>
  <rect x="430" y="462" width="610" height="14" rx="7" fill="#fef3c7"/>
  <rect x="430" y="496" width="560" height="14" rx="7" fill="#fef3c7"/>
  <text x="430" y="590" font-family="Arial, sans-serif" font-size="18" fill="#64748b">Generated for Smart Profile Management System upload testing.</text>
  <text x="430" y="630" font-family="Arial, sans-serif" font-size="18" fill="#64748b">Not a real faculty record.</text>
</svg>
